# xmcd CD database file
#
# Track frame offsets:
#	150
#	2865
#	27212
#	47170
#	64320
#	91597
#	108100
#	134715
#	164010
#	182080
#	211722
#	235472
#	262910
#	285865
#
# Disc length: 4082 seconds
#
# Revision: 10
# Processed by: cddbd v1.5.2PL0 Copyright (c) Steve Scherf et al.
# Submitted via: CDex 1.70beta2
#
DISCID=bb0ff00e
DTITLE=orange pekoe - Organic Plastic Music
DYEAR=2002
DGENRE=JPop
TTITLE0=Introduction
TTITLE1=愛の泉
TTITLE2=太陽のかけら
TTITLE3=アダジオ
TTITLE4=12ヶ月
TTITLE5=Happy Valley
TTITLE6=サンクチュアリ
TTITLE7=記憶
TTITLE8=やわらかな夜
TTITLE9=ONE AND ONLY DAY
TTITLE10=bottle
TTITLE11=深街魚
TTITLE12=LOVE LIFE
TTITLE13=tiny, baby
EXTD=YEAR: 2002
EXTT0=
EXTT1=
EXTT2=
EXTT3=
EXTT4=
EXTT5=
EXTT6=
EXTT7=
EXTT8=
EXTT9=
EXTT10=
EXTT11=
EXTT12=
EXTT13=
PLAYORDER=
